<svg width="201" height="201" viewBox="0 0 201 201" fill="none" xmlns="http://www.w3.org/2000/svg">
<path fill-rule="evenodd" clip-rule="evenodd" d="M120.108 168.061C105.795 167.739 95.9907 154.513 82.6715 149.271C69.5413 144.103 52.2821 148.361 43.0209 137.722C33.5859 126.883 35.6726 110.534 36.4628 96.187C37.2511 81.8737 38.6015 66.9342 47.5374 55.7174C56.5111 44.4532 71.4027 41.3813 84.6439 35.7077C100.578 28.88 116.571 12.753 132.637 19.2535C148.749 25.7732 148.707 48.6556 155.819 64.5069C161.593 77.3763 168.724 89.1504 170.285 103.169C172.107 119.54 175.544 138.101 165.463 151.138C155.347 164.22 136.644 168.434 120.108 168.061Z" fill="url(#paint0_linear)"/>
<path fill-rule="evenodd" clip-rule="evenodd" d="M151.39 148.984C138.833 155.861 123.729 149.31 109.574 151.429C95.6186 153.519 82.8005 165.836 69.4604 161.253C55.8701 156.583 49.5029 141.382 43.0136 128.562C36.5397 115.772 30.2394 102.159 32.3697 87.9766C34.5091 73.7347 45.8697 63.6285 54.5001 52.0944C64.8859 38.2142 70.6723 16.2516 87.8359 13.8484C105.05 11.4381 116.455 31.2759 130.539 41.4477C141.974 49.7061 154.037 56.337 162.398 67.6973C172.162 80.9637 184.418 95.3197 182.207 111.651C179.987 128.038 165.897 141.039 151.39 148.984Z" fill="url(#paint1_linear)" fill-opacity="0.5"/>
<circle cx="92.5" cy="89.5" r="18" stroke="white" stroke-width="3"/>
<circle cx="118.5" cy="89.5" r="18" stroke="white" stroke-width="3"/>
<circle cx="105.5" cy="106.5" r="18" stroke="white" stroke-width="3"/>
<defs>
<linearGradient id="paint0_linear" x1="119.316" y1="171.679" x2="80.9839" y2="28.6211" gradientUnits="userSpaceOnUse">
<stop stop-color="#6D678E"/>
<stop offset="1" stop-color="#F6B5CC"/>
</linearGradient>
<linearGradient id="paint1_linear" x1="152.513" y1="152.513" x2="47.7872" y2="47.7873" gradientUnits="userSpaceOnUse">
<stop stop-color="#6D678E"/>
<stop offset="1" stop-color="#F6B5CC"/>
</linearGradient>
</defs>
</svg>
