<svg width="48" height="48" viewBox="0 0 48 48" fill="none" xmlns="http://www.w3.org/2000/svg">
<g filter="url(#filter0_dd)">
<path d="M30.25 20C30.25 21.6576 29.5915 23.2473 28.4194 24.4194C27.2473 25.5915 25.6576 26.25 24 26.25C22.3424 26.25 20.7527 25.5915 19.5806 24.4194C18.4085 23.2473 17.75 21.6576 17.75 20C17.75 19.6437 17.7875 19.2958 17.8521 18.9583H15.6667V27.2854C15.6667 27.8646 16.1354 28.3333 16.7146 28.3333H31.2875C31.5651 28.3328 31.8311 28.2221 32.0271 28.0257C32.2232 27.8292 32.3333 27.563 32.3333 27.2854V18.9583H30.1479C30.2125 19.2958 30.25 19.6437 30.25 20ZM24 24.1667C24.5473 24.1665 25.0892 24.0586 25.5948 23.849C26.1004 23.6394 26.5598 23.3323 26.9467 22.9452C27.3336 22.5581 27.6405 22.0986 27.8498 21.5929C28.0591 21.0872 28.1668 20.5452 28.1667 19.9979C28.1665 19.4506 28.0586 18.9087 27.849 18.4031C27.6394 17.8975 27.3323 17.4381 26.9452 17.0512C26.5581 16.6643 26.0986 16.3574 25.5929 16.1481C25.0872 15.9388 24.5452 15.8311 23.9979 15.8312C22.8926 15.8315 21.8326 16.2709 21.0512 17.0527C20.2698 17.8345 19.831 18.8947 19.8312 20C19.8315 21.1053 20.2709 22.1653 21.0527 22.9467C21.8345 23.7281 22.8947 24.1669 24 24.1667ZM29 15.625H31.4979C31.6639 15.625 31.8231 15.5592 31.9406 15.4421C32.0581 15.3249 32.1244 15.166 32.125 15V12.5021C32.125 12.3358 32.0589 12.1763 31.9413 12.0587C31.8237 11.9411 31.6642 11.875 31.4979 11.875H29C28.8337 11.875 28.6742 11.9411 28.5566 12.0587C28.439 12.1763 28.3729 12.3358 28.3729 12.5021V15C28.375 15.3437 28.6562 15.625 29 15.625ZM24 0C18.6957 0 13.6086 2.10714 9.85786 5.85786C6.10714 9.60859 4 14.6957 4 20C4 25.3043 6.10714 30.3914 9.85786 34.1421C13.6086 37.8929 18.6957 40 24 40C26.6264 40 29.2272 39.4827 31.6537 38.4776C34.0802 37.4725 36.285 35.9993 38.1421 34.1421C39.9993 32.285 41.4725 30.0802 42.4776 27.6537C43.4827 25.2272 44 22.6264 44 20C44 17.3736 43.4827 14.7728 42.4776 12.3463C41.4725 9.91982 39.9993 7.71504 38.1421 5.85786C36.285 4.00069 34.0802 2.5275 31.6537 1.52241C29.2272 0.517315 26.6264 0 24 0ZM34.4167 28.1021C34.4167 29.375 33.375 30.4167 32.1021 30.4167H15.8979C14.625 30.4167 13.5833 29.375 13.5833 28.1021V11.8979C13.5833 10.625 14.625 9.58333 15.8979 9.58333H32.1021C33.375 9.58333 34.4167 10.625 34.4167 11.8979V28.1021Z" fill="#383838"/>
</g>
<defs>
<filter id="filter0_dd" x="0" y="0" width="48" height="48" filterUnits="userSpaceOnUse" color-interpolation-filters="sRGB">
<feFlood flood-opacity="0" result="BackgroundImageFix"/>
<feColorMatrix in="SourceAlpha" type="matrix" values="0 0 0 0 0 0 0 0 0 0 0 0 0 0 0 0 0 0 127 0"/>
<feOffset dy="4"/>
<feGaussianBlur stdDeviation="2"/>
<feColorMatrix type="matrix" values="0 0 0 0 0 0 0 0 0 0 0 0 0 0 0 0 0 0 0.25 0"/>
<feBlend mode="normal" in2="BackgroundImageFix" result="effect1_dropShadow"/>
<feColorMatrix in="SourceAlpha" type="matrix" values="0 0 0 0 0 0 0 0 0 0 0 0 0 0 0 0 0 0 127 0"/>
<feOffset dy="4"/>
<feGaussianBlur stdDeviation="2"/>
<feColorMatrix type="matrix" values="0 0 0 0 0 0 0 0 0 0 0 0 0 0 0 0 0 0 0.25 0"/>
<feBlend mode="normal" in2="effect1_dropShadow" result="effect2_dropShadow"/>
<feBlend mode="normal" in="SourceGraphic" in2="effect2_dropShadow" result="shape"/>
</filter>
</defs>
</svg>
